<svg id="Capa_1" enable-background="new 0 0 512 512" height="512" viewBox="0 0 512 512" width="512" xmlns="http://www.w3.org/2000/svg"><g><path d="m0 286h204.167v45.042h-204.167z"/><path d="m234.167 180h43.667v271h-43.667z"/><path d="m307.833 286h204.167v45.041h-204.167z"/><path d="m0 180h204.167v76h-204.167z"/><path d="m307.833 361.041h204.167v89.959h-204.167z"/><path d="m307.833 180h204.167v76h-204.167z"/><path d="m0 361.042h204.167v89.958h-204.167z"/><path d="m173.822 150c-12.834-3.401-22.322-15.112-22.322-29 0-16.542 13.458-30 30-30h19c16.542 0 30 13.458 30 30v29h51v-29c0-16.542 13.458-30 30-30h19c16.542 0 30 13.458 30 30 0 13.888-9.488 25.599-22.322 29h44.809c4.774-8.603 7.513-18.484 7.513-29 0-33.084-26.916-60-60-60h-19c-25.027 0-46.514 15.408-55.5 37.231-8.986-21.823-30.473-37.231-55.5-37.231h-19c-33.084 0-60 26.916-60 60 0 10.516 2.739 20.397 7.513 29z"/></g></svg>